<svg width="77" height="24" viewBox="0 0 77 24" fill="none" xmlns="http://www.w3.org/2000/svg">
<g clip-path="url(#clip0)">
<path d="M22.0514 0.0253906V1.79776H19.0568V10.0846H17.2406V1.79813H14.2319V0.0253906H22.0514Z" fill="#00284B"/>
<path d="M30.0372 5.75112V10.0838H28.2903V6.09937C28.2903 5.06924 27.7634 4.44809 26.7514 4.44809C25.8779 4.44809 25.1153 5.19032 25.1153 6.43263V10.0838H23.3684V0.0235596H25.1153V3.43332C25.4896 2.99397 26.2244 2.69108 27.1119 2.69108C28.831 2.69071 30.0372 3.8573 30.0372 5.75112Z" fill="#00284B"/>
<path d="M38.3421 7.90195C37.8292 9.35643 36.5259 10.2805 35.0977 10.2805C33.0459 10.2805 31.5347 8.65955 31.5347 6.47783C31.5347 4.32647 32.9766 2.69055 35.0284 2.69055C37.0666 2.69055 38.4529 4.32684 38.4529 6.44783C38.4529 6.69037 38.4666 6.87218 38.4251 7.11435H33.3508C33.531 7.97804 34.2243 8.52347 35.0977 8.52347C35.6525 8.52347 36.1376 8.34166 36.4563 7.90231H38.3421V7.90195ZM36.5952 5.68987C36.4844 4.84154 35.8466 4.32647 35.0284 4.32647C34.238 4.32647 33.5035 4.85654 33.3924 5.68987H36.5952Z" fill="#00284B"/>
<path d="M24.0244 23.8032H22.097L21.1958 21.5761H16.995L16.0938 23.8032H14.2361L18.2427 13.7437H20.0174L24.0244 23.8032ZM17.7161 19.8037H20.475L19.1024 16.3801L17.7161 19.8037Z" fill="#00284B"/>
<path d="M26.7695 16.4847V17.3495C27.0608 16.8648 27.6165 16.4847 28.5026 16.4847H29.3068V18.3138H28.4889C27.3661 18.3138 26.7698 19.1523 26.7698 20.3039V23.8036H25.0229V16.4847H26.7695Z" fill="#00284B"/>
<path d="M35.1574 21.4396H36.9321C36.4467 23.0152 35.1712 24 33.6878 24C31.6911 24 30.1799 22.379 30.1799 20.1973C30.1799 18.0156 31.6911 16.41 33.6878 16.41C35.1712 16.41 36.4467 17.3948 36.9321 18.9704H35.1574C34.8384 18.4099 34.284 18.1674 33.6878 18.1674C32.6342 18.1674 31.9268 18.9854 31.9268 20.1973C31.9268 21.4093 32.6339 22.2426 33.6878 22.2426C34.284 22.2426 34.8387 22.0004 35.1574 21.4396Z" fill="#00284B"/>
<path d="M45.1676 19.4704V23.8031H43.4207V19.8187C43.4207 18.7885 42.8938 18.1674 41.8817 18.1674C41.0083 18.1674 40.2457 18.9096 40.2457 20.1519V23.8031H38.4988V13.6678H40.2457V17.1522C40.6199 16.7129 41.3548 16.41 42.2423 16.41C43.9614 16.41 45.1676 17.5766 45.1676 19.4704Z" fill="#00284B"/>
<path d="M46.9836 13.365H48.8969V15.4406H46.9836V13.365ZM48.8139 16.4847V23.8032H47.067V16.4847H48.8139Z" fill="#00284B"/>
<path d="M53.1671 14.986V16.4843H55.1638V18.2732H53.1671V21.2425C53.1671 21.7729 53.3891 22.1362 53.9298 22.1362H55.1638V23.8028H53.916C52.2662 23.8028 51.4206 22.8788 51.4206 21.5454V18.2732H50.2144V16.4843H51.4206V14.986H53.1671V14.986Z" fill="#00284B"/>
<path d="M62.9969 21.6214C62.484 23.0759 61.1807 24 59.7525 24C57.7006 24 56.1895 22.379 56.1895 20.1973C56.1895 18.046 57.6313 16.41 59.6832 16.41C61.7213 16.41 63.1077 18.0463 63.1077 20.1673C63.1077 20.4099 63.1217 20.5917 63.0799 20.8338H58.0056C58.1857 21.6975 58.8791 22.2426 59.7525 22.2426C60.3072 22.2426 60.7923 22.0608 61.111 21.6214H62.9969ZM61.25 19.4097C61.1392 18.5614 60.5014 18.0463 59.6832 18.0463C58.8928 18.0463 58.1583 18.5768 58.0471 19.4097H61.25Z" fill="#00284B"/>
<path d="M69.333 21.4396H71.1076C70.6222 23.0152 69.3467 24 67.8633 24C65.8667 24 64.3555 22.379 64.3555 20.1973C64.3555 18.0156 65.8667 16.41 67.8633 16.41C69.3467 16.41 70.6222 17.3948 71.1076 18.9704H69.333C69.0139 18.4099 68.4595 18.1674 67.8633 18.1674C66.8097 18.1674 66.1023 18.9854 66.1023 20.1973C66.1023 21.4093 66.8094 22.2426 67.8633 22.2426C68.4595 22.2426 69.0139 22.0004 69.333 21.4396Z" fill="#00284B"/>
<path d="M75.0035 14.986V16.4843H77.0002V18.2732H75.0035V21.2425C75.0035 21.7729 75.2255 22.1362 75.7662 22.1362H77.0002V23.8028H75.7524C74.1026 23.8028 73.257 22.8788 73.257 21.5454V18.2732H72.0508V16.4843H73.257V14.986H75.0035V14.986Z" fill="#00284B"/>
<path d="M11.7173 11.889L5.85864 0L0 11.889L5.85864 23.7805L11.7173 11.889Z" fill="#00284B"/>
</g>
<defs>
<clipPath id="clip0">
<rect width="77" height="24" fill="white"/>
</clipPath>
</defs>
</svg>
